<?xml version="1.0" standalone="no"?><!DOCTYPE svg PUBLIC "-//W3C//DTD SVG 1.1//EN" "http://www.w3.org/Graphics/SVG/1.1/DTD/svg11.dtd"><svg t="1686282727915" class="icon" viewBox="0 0 1024 1024" version="1.1" xmlns="http://www.w3.org/2000/svg" p-id="1514" xmlns:xlink="http://www.w3.org/1999/xlink" width="200" height="200"><path d="M871.8 775.9l-19.7-93.6c-10.5-49.8-40.7-93-84-119.8l-118.5-73.4c17.8-23.9 29.7-52.6 33.1-84.1l9.5-88.5c10.9-101.4-68.6-189.8-170.6-189.8h-19c-102 0-181.4 88.4-170.6 189.8l9.5 88.5c3.4 31.5 15.3 60.3 33.1 84.2L256 562.6c-43.3 26.8-73.5 70-84 119.8L152.3 776c-13.3 62.6 34.5 121.5 98.5 121.5h522.6c63.9-0.1 111.6-59 98.4-121.6zM432.2 235c18.2-20.2 43.1-31.3 70.3-31.3h19c27.2 0 52.1 11.1 70.3 31.3 18.2 20.2 26.6 46.2 23.7 73.2l-9.5 88.5c-5.2 48.1-45.5 84.4-93.9 84.4s-88.8-36.3-93.9-84.4l-9.5-88.5c-3-27 5.4-53 23.5-73.2z m359.4 576.5c-2.6 3.4-8.5 8.8-18.3 8.8H250.7c-9.9 0-15.7-5.4-18.3-8.8-2.6-3.2-6.8-10.2-4.8-19.7l19.7-93.6c6.2-29 24-54.4 49.2-70L437.2 541c22.7 11 48 17.2 74.8 17.2 26.7 0 52.1-6.2 74.7-17.2l140.8 87.2c25.1 15.6 43 41 49.2 70l19.7 93.6c2 9.5-2.1 16.5-4.8 19.7z" fill="#111111" p-id="1515"></path><path d="M658.4 758.6h-77.1c-21.3 0-38.5-17.3-38.5-38.5 0-21.3 17.3-38.5 38.5-38.5h77.1c21.3 0 38.5 17.3 38.5 38.5 0.1 21.3-17.2 38.5-38.5 38.5z" fill="#00C569" p-id="1516"></path></svg>