<?xml version="1.0" standalone="no"?><!DOCTYPE svg PUBLIC "-//W3C//DTD SVG 1.1//EN" "http://www.w3.org/Graphics/SVG/1.1/DTD/svg11.dtd"><svg t="1686282710918" class="icon" viewBox="0 0 1024 1024" version="1.1" xmlns="http://www.w3.org/2000/svg" p-id="1364" xmlns:xlink="http://www.w3.org/1999/xlink" width="200" height="200"><path d="M772.8 203.7h-29.5v-38.5c0-21.3-17.3-38.5-38.5-38.5-21.3 0-38.5 17.3-38.5 38.5v38.5H357.8v-38.5c0-21.3-17.3-38.5-38.5-38.5s-38.5 17.3-38.5 38.5v38.5h-29.5c-68.8 0-124.6 55.8-124.6 124.6v444.5c0 68.8 55.8 124.6 124.6 124.6h521.5c68.8 0 124.6-55.8 124.6-124.6V328.3c0-68.8-55.8-124.6-124.6-124.6z m47.5 569.1c0 26.2-21.3 47.5-47.5 47.5H251.2c-26.2 0-47.5-21.3-47.5-47.5V328.3c0-26.2 21.3-47.5 47.5-47.5h29.5v38.5c0 21.3 17.3 38.5 38.5 38.5s38.5-17.3 38.5-38.5v-38.5H666v38.5c0 21.3 17.3 38.5 38.5 38.5 21.3 0 38.5-17.3 38.5-38.5v-38.5h29.5c26.2 0 47.5 21.3 47.5 47.5v444.5z" fill="#111111" p-id="1365"></path><path d="M512 519.7m-38.5 0a38.5 38.5 0 1 0 77 0 38.5 38.5 0 1 0-77 0Z" fill="#111111" p-id="1366"></path><path d="M512 658.4m-38.5 0a38.5 38.5 0 1 0 77 0 38.5 38.5 0 1 0-77 0Z" fill="#111111" p-id="1367"></path><path d="M373.3 658.4m-38.5 0a38.5 38.5 0 1 0 77 0 38.5 38.5 0 1 0-77 0Z" fill="#111111" p-id="1368"></path><path d="M650.7 519.7m-38.5 0a38.5 38.5 0 1 0 77 0 38.5 38.5 0 1 0-77 0Z" fill="#00C569" p-id="1369"></path><path d="M650.7 658.4m-38.5 0a38.5 38.5 0 1 0 77 0 38.5 38.5 0 1 0-77 0Z" fill="#00C569" p-id="1370"></path></svg>