<?xml version="1.0" standalone="no"?><!DOCTYPE svg PUBLIC "-//W3C//DTD SVG 1.1//EN" "http://www.w3.org/Graphics/SVG/1.1/DTD/svg11.dtd"><svg t="1686282163549" class="icon" viewBox="0 0 1024 1024" version="1.1" xmlns="http://www.w3.org/2000/svg" p-id="1071" xmlns:xlink="http://www.w3.org/1999/xlink" width="200" height="200"><path d="M753.4 743.2L611 580.7c-15.9-18.2-40.4-26-63.8-20.3l-11.6 2.8c-12.6 3-25.5-3.5-30.5-15.4-9.3-21.7-16-44.9-20.2-69.5-1.7-10.2 5-20.3 15.1-22.7 20.2-4.9 35.9-19.1 43.7-37.1 4-9.3 5.8-19.7 5-30.5L534 198.3c-3.9-50.1-53.4-83.5-101.3-68.2l-103.9 40c-40.5 12.9-69.1 48.6-73.6 90.8-22.5 207.9 51.2 441.5 208.5 597.3 17.1 17 46.1 11.4 56.4-10.4 0.3-0.6 0.6-1.2 0.8-1.8 6.5-13.8 3.2-29.8-7.6-40.6-137.3-136.7-202-340.1-187.6-521.7 1.8-22.9 17.7-42.3 39.6-49.2l70.7-29.3c12.8-4.1 26 4.7 27.2 18.3l11 142.7c1 11.9-7 22.9-18.6 25.6l-24.1 5.9c-18.7 4.6-30.9 22.7-28 41.8 12.7 81 30.2 136.9 75.1 204.3 9.7 14.5 28.3 20.2 44.5 13.7l32.5-13c9.7-3.9 21-1.1 27.7 7l103 121.9c9.4 11.1 5 28.1-8.8 33.1 0 0-30.9 11-57.7 20.4-20.5 7.2-30.2 30.5-20.8 50.1 8.1 16.9 27.7 25 45.3 18.6l76.8-27.8c51.8-18.6 68.5-83.4 32.3-124.6z" fill="#111111" p-id="1072"></path><path d="M598.4 177.9c1.3 16.1 12.4 29.9 28 34 30.8 8.1 54.6 35 57.2 68.6s-16.7 63.8-46 76.6c-14.8 6.5-23.7 21.8-22.5 38 2.1 26.9 30.3 43.1 54.8 32 57.6-25.9 95.6-86 90.4-152.5s-52-120-112.9-136.8c-25.7-7.1-51 13.3-49 40.1z" fill="#00C569" p-id="1073"></path></svg>