<?xml version="1.0" standalone="no"?><!DOCTYPE svg PUBLIC "-//W3C//DTD SVG 1.1//EN" "http://www.w3.org/Graphics/SVG/1.1/DTD/svg11.dtd"><svg t="1686282175205" class="icon" viewBox="0 0 1024 1024" version="1.1" xmlns="http://www.w3.org/2000/svg" p-id="1217" xmlns:xlink="http://www.w3.org/1999/xlink" width="200" height="200"><path d="M771.4 131.9H252.6c-69.6 0-125.9 56.4-125.9 125.9v333.9c0 69.6 56.4 125.9 125.9 125.9h39.3l-52.2 122.5c-7.4 20 2.8 42.1 22.8 49.5 20 7.4 42.1-2.8 49.5-22.8l73.4-172.3c0.1-0.3 0.3-0.7 0.4-1l0.5-1.1c0.3-0.8 0.4-1.7 0.7-2.5 0.4-1.3 0.8-2.7 1.1-4.1 0.3-1.4 0.3-2.8 0.4-4.2 0.1-0.9 0.3-1.7 0.3-2.6 0-0.3-0.1-0.5-0.1-0.8 0-1.5-0.2-2.9-0.4-4.4-0.1-1.1-0.2-2.2-0.5-3.3-0.3-1.2-0.7-2.4-1.1-3.6-0.4-1.2-0.7-2.4-1.2-3.5s-1.1-2.1-1.7-3.1c-0.6-1.1-1.2-2.2-1.9-3.3-0.7-1-1.6-2-2.4-2.9-0.8-0.9-1.5-1.9-2.4-2.7-0.9-0.9-1.9-1.6-2.9-2.4-1-0.8-1.9-1.6-3-2.3-0.9-0.6-1.9-1.1-2.9-1.6-1.3-0.7-2.6-1.4-3.9-1.9-0.3-0.1-0.5-0.3-0.7-0.4-0.8-0.3-1.7-0.4-2.5-0.7-1.3-0.4-2.7-0.8-4.1-1.1-1.4-0.3-2.8-0.3-4.2-0.4-0.9-0.1-1.7-0.3-2.6-0.3h-97.6c-27 0-48.9-21.9-48.9-48.9V257.8c0-27 21.9-48.9 48.9-48.9h518.9c27 0 48.9 21.9 48.9 48.9v333.9c0 27-21.9 48.9-48.9 48.9H504.3c-21.3 0-38.5 17.3-38.5 38.5 0 21.3 17.3 38.5 38.5 38.5h267.1c69.6 0 125.9-56.4 125.9-125.9V257.8c0.1-69.5-56.3-125.9-125.9-125.9z" fill="#111111" p-id="1218"></path><path d="M635.3 355.4c0-21.3-17.3-38.5-38.5-38.5H319.3c-21.3 0-38.5 17.3-38.5 38.5 0 21.3 17.3 38.5 38.5 38.5h277.5c21.3 0 38.5-17.2 38.5-38.5z" fill="#111111" p-id="1219"></path><path d="M519.7 532.7H319.3c-21.3 0-38.5-17.3-38.5-38.5 0-21.3 17.3-38.5 38.5-38.5h200.4c21.3 0 38.5 17.3 38.5 38.5s-17.2 38.5-38.5 38.5z" fill="#00C569" p-id="1220"></path></svg>